# Blender 4.0.2
# www.blender.org
mtllib seastar.mtl
o Circle
v -0.080916 -0.100000 -0.440943
v 0.000000 0.000000 -0.258599
v 0.080916 -0.100000 -0.440943
v -0.506869 -0.100000 -0.750258
v -0.556907 -0.100000 -0.713904
v -0.397716 0.000000 -0.547410
v -0.394358 -0.100000 -0.213215
v -0.444366 -0.100000 -0.059303
v -0.245943 0.000000 -0.079912
v -0.870169 -0.100000 0.250219
v -0.851057 -0.100000 0.309041
v -0.643518 0.000000 0.209092
v -0.324642 -0.100000 0.309169
v -0.193718 -0.100000 0.404292
v -0.152001 0.000000 0.209211
v -0.030925 -0.100000 0.904902
v 0.030925 -0.100000 0.904902
v 0.000000 0.000000 0.676635
v 0.193718 -0.100000 0.404292
v 0.324642 -0.100000 0.309169
v 0.152001 0.000000 0.209211
v 0.851057 -0.100000 0.309041
v 0.870169 -0.100000 0.250219
v 0.643518 0.000000 0.209092
v 0.444366 -0.100000 -0.059303
v 0.394358 -0.100000 -0.213215
v 0.245943 0.000000 -0.079912
v 0.556907 -0.100000 -0.713904
v 0.506869 -0.100000 -0.750258
v 0.397716 0.000000 -0.547410
v -0.080916 -0.300000 -0.440943
v 0.080916 -0.300000 -0.440943
v 0.000000 -0.400000 -0.258599
v -0.506869 -0.300000 -0.750258
v -0.397716 -0.400000 -0.547410
v -0.556907 -0.300000 -0.713904
v -0.394358 -0.300000 -0.213215
v -0.245943 -0.400000 -0.079912
v -0.444366 -0.300000 -0.059303
v -0.870169 -0.300000 0.250219
v -0.643518 -0.400000 0.209092
v -0.851057 -0.300000 0.309041
v -0.324642 -0.300000 0.309169
v -0.152001 -0.400000 0.209211
v -0.193718 -0.300000 0.404292
v -0.030925 -0.300000 0.904902
v 0.000000 -0.400000 0.676635
v 0.030925 -0.300000 0.904902
v 0.193718 -0.300000 0.404292
v 0.152001 -0.400000 0.209211
v 0.324642 -0.300000 0.309169
v 0.851057 -0.300000 0.309041
v 0.643518 -0.400000 0.209092
v 0.870169 -0.300000 0.250219
v 0.444366 -0.300000 -0.059303
v 0.245943 -0.400000 -0.079912
v 0.394358 -0.300000 -0.213215
v 0.556907 -0.300000 -0.713904
v 0.397716 -0.400000 -0.547410
v 0.506869 -0.300000 -0.750258
vn -0.5876 -0.0000 -0.8092
vn -0.0000 1.0000 -0.0000
vn -0.5880 -0.0000 -0.8089
vn -0.0002 -0.0000 1.0000
vn -0.9510 -0.0000 0.3092
vn 0.9510 -0.0000 0.3092
vn 0.0002 -0.0000 1.0000
vn 0.5880 -0.0000 -0.8089
vn 0.9511 -0.0000 0.3088
vn -0.0000 -1.0000 -0.0000
vn -0.9511 -0.0000 0.3088
vn -0.0000 0.8768 -0.4809
vn -0.2359 0.9160 -0.3246
vn -0.4573 0.8768 -0.1486
vn -0.3816 0.9160 0.1240
vn -0.2826 0.8768 0.3890
vn -0.0000 0.9160 0.4013
vn 0.2826 0.8768 0.3890
vn 0.3816 0.9160 0.1240
vn 0.4573 0.8768 -0.1486
vn 0.2359 0.9160 -0.3246
vn -0.0000 -0.8768 -0.4809
vn -0.2359 -0.9160 -0.3246
vn -0.4573 -0.8768 -0.1486
vn -0.3816 -0.9160 0.1240
vn -0.2826 -0.8768 0.3890
vn -0.0000 -0.9160 0.4013
vn 0.2826 -0.8768 0.3890
vn 0.3816 -0.9160 0.1240
vn 0.4573 -0.8768 -0.1486
vn 0.2359 -0.9160 -0.3246
vn 0.4155 0.7071 -0.5722
vn -0.6726 0.7071 0.2183
vn -0.4158 0.7071 -0.5720
vn -0.0002 0.7071 0.7071
vn -0.6724 0.7071 0.2187
vn 0.6724 0.7071 0.2187
vn 0.0002 0.7071 0.7071
vn 0.4158 0.7071 -0.5720
vn 0.6726 0.7071 0.2183
vn -0.4155 0.7071 -0.5722
vn 0.4155 -0.7071 -0.5722
vn -0.6726 -0.7071 0.2183
vn -0.4158 -0.7071 -0.5720
vn -0.0002 -0.7071 0.7071
vn -0.6724 -0.7071 0.2187
vn 0.6724 -0.7071 0.2187
vn 0.0002 -0.7071 0.7071
vn 0.4158 -0.7071 -0.5720
vn 0.6726 -0.7071 0.2183
vn -0.4155 -0.7071 -0.5722
vn -0.0000 -0.0000 -1.0000
vn -0.5878 -0.0000 -0.8090
vn -0.9511 -0.0000 -0.3090
vn -0.9511 -0.0000 0.3090
vn -0.5878 -0.0000 0.8090
vn -0.0000 -0.0000 1.0000
vn 0.5878 -0.0000 0.8090
vn 0.9511 -0.0000 0.3090
vn 0.9511 -0.0000 -0.3090
vn 0.5878 -0.0000 -0.8090
vn 0.5876 -0.0000 -0.8092
vt 0.000000 0.000000
s 0
usemtl Material.001
f 3/1/1 29/1/1 60/1/1 32/1/1
f 6/1/2 9/1/2 12/1/2 15/1/2 18/1/2 21/1/2 24/1/2 27/1/2 30/1/2 2/1/2
f 10/1/3 8/1/3 39/1/3 40/1/3
f 13/1/4 11/1/4 42/1/4 43/1/4
f 16/1/5 14/1/5 45/1/5 46/1/5
f 19/1/6 17/1/6 48/1/6 49/1/6
f 22/1/7 20/1/7 51/1/7 52/1/7
f 25/1/8 23/1/8 54/1/8 55/1/8
f 28/1/9 26/1/9 57/1/9 58/1/9
f 35/1/10 33/1/10 59/1/10 56/1/10 53/1/10 50/1/10 47/1/10 44/1/10 41/1/10 38/1/10
f 7/1/11 5/1/11 36/1/11 37/1/11
f 1/1/12 2/1/12 3/1/12
f 4/1/13 5/1/13 6/1/13
f 7/1/14 8/1/14 9/1/14
f 10/1/15 11/1/15 12/1/15
f 13/1/16 14/1/16 15/1/16
f 16/1/17 17/1/17 18/1/17
f 19/1/18 20/1/18 21/1/18
f 22/1/19 23/1/19 24/1/19
f 25/1/20 26/1/20 27/1/20
f 28/1/21 29/1/21 30/1/21
f 31/1/22 32/1/22 33/1/22
f 34/1/23 35/1/23 36/1/23
f 37/1/24 38/1/24 39/1/24
f 40/1/25 41/1/25 42/1/25
f 43/1/26 44/1/26 45/1/26
f 46/1/27 47/1/27 48/1/27
f 49/1/28 50/1/28 51/1/28
f 52/1/29 53/1/29 54/1/29
f 55/1/30 56/1/30 57/1/30
f 58/1/31 59/1/31 60/1/31
f 6/1/32 2/1/32 1/1/32 4/1/32
f 9/1/33 6/1/33 5/1/33 7/1/33
f 12/1/34 9/1/34 8/1/34 10/1/34
f 15/1/35 12/1/35 11/1/35 13/1/35
f 18/1/36 15/1/36 14/1/36 16/1/36
f 21/1/37 18/1/37 17/1/37 19/1/37
f 24/1/38 21/1/38 20/1/38 22/1/38
f 27/1/39 24/1/39 23/1/39 25/1/39
f 30/1/40 27/1/40 26/1/40 28/1/40
f 2/1/41 30/1/41 29/1/41 3/1/41
f 34/1/42 31/1/42 33/1/42 35/1/42
f 37/1/43 36/1/43 35/1/43 38/1/43
f 40/1/44 39/1/44 38/1/44 41/1/44
f 43/1/45 42/1/45 41/1/45 44/1/45
f 46/1/46 45/1/46 44/1/46 47/1/46
f 49/1/47 48/1/47 47/1/47 50/1/47
f 52/1/48 51/1/48 50/1/48 53/1/48
f 55/1/49 54/1/49 53/1/49 56/1/49
f 58/1/50 57/1/50 56/1/50 59/1/50
f 32/1/51 60/1/51 59/1/51 33/1/51
f 3/1/52 32/1/52 31/1/52 1/1/52
f 4/1/53 34/1/53 36/1/53 5/1/53
f 7/1/54 37/1/54 39/1/54 8/1/54
f 10/1/55 40/1/55 42/1/55 11/1/55
f 13/1/56 43/1/56 45/1/56 14/1/56
f 16/1/57 46/1/57 48/1/57 17/1/57
f 19/1/58 49/1/58 51/1/58 20/1/58
f 22/1/59 52/1/59 54/1/59 23/1/59
f 25/1/60 55/1/60 57/1/60 26/1/60
f 28/1/61 58/1/61 60/1/61 29/1/61
f 4/1/62 1/1/62 31/1/62 34/1/62
